<mxfile host="app.diagrams.net" agent="Mozilla/5.0 (Windows NT 10.0; Win64; x64) AppleWebKit/537.36 (KHTML, like Gecko) Chrome/129.0.0.0 Safari/537.36" version="24.7.17">
  <diagram name="Page-1" id="kASymmJr75rhaQQPGE7e">
    <mxGraphModel dx="1009" dy="563" grid="1" gridSize="10" guides="1" tooltips="1" connect="1" arrows="1" fold="1" page="1" pageScale="1" pageWidth="827" pageHeight="1169" math="0" shadow="0">
      <root>
        <mxCell id="0" />
        <mxCell id="1" parent="0" />
        <mxCell id="0a0jCNp5kRciebp-JQkH-1" value="&lt;b&gt;&lt;font face=&quot;Times New Roman&quot; style=&quot;font-size: 18px;&quot;&gt;MCC : Gestion d&#39;une bibliothèque&amp;nbsp;&lt;/font&gt;&lt;/b&gt;" style="text;html=1;align=center;verticalAlign=middle;resizable=0;points=[];autosize=1;labelBorderColor=none;labelBackgroundColor=default;" vertex="1" parent="1">
          <mxGeometry x="255" y="10" width="290" height="40" as="geometry" />
        </mxCell>
        <mxCell id="0a0jCNp5kRciebp-JQkH-3" value="" style="rounded=0;whiteSpace=wrap;html=1;fillColor=#ffe6cc;strokeColor=#d79b00;" vertex="1" parent="1">
          <mxGeometry x="460" y="120" width="350" height="270" as="geometry" />
        </mxCell>
        <mxCell id="0a0jCNp5kRciebp-JQkH-4" value="&lt;font style=&quot;font-size: 18px;&quot; face=&quot;Times New Roman&quot;&gt;&lt;b&gt;bibliothécaire&amp;nbsp;&lt;/b&gt;&lt;/font&gt;" style="ellipse;whiteSpace=wrap;html=1;" vertex="1" parent="1">
          <mxGeometry x="510" y="140" width="140" height="50" as="geometry" />
        </mxCell>
        <mxCell id="0a0jCNp5kRciebp-JQkH-13" style="edgeStyle=orthogonalEdgeStyle;rounded=0;orthogonalLoop=1;jettySize=auto;html=1;entryX=0.58;entryY=0.022;entryDx=0;entryDy=0;entryPerimeter=0;exitX=0.059;exitY=1.193;exitDx=0;exitDy=0;exitPerimeter=0;" edge="1" parent="1" source="0a0jCNp5kRciebp-JQkH-15" target="0a0jCNp5kRciebp-JQkH-5">
          <mxGeometry relative="1" as="geometry">
            <Array as="points">
              <mxPoint x="740" y="166" />
              <mxPoint x="740" y="164" />
              <mxPoint x="770" y="164" />
              <mxPoint x="770" y="180" />
              <mxPoint x="727" y="180" />
            </Array>
          </mxGeometry>
        </mxCell>
        <mxCell id="0a0jCNp5kRciebp-JQkH-16" style="edgeStyle=orthogonalEdgeStyle;rounded=0;orthogonalLoop=1;jettySize=auto;html=1;" edge="1" parent="1" source="0a0jCNp5kRciebp-JQkH-5" target="0a0jCNp5kRciebp-JQkH-8">
          <mxGeometry relative="1" as="geometry" />
        </mxCell>
        <mxCell id="0a0jCNp5kRciebp-JQkH-20" style="edgeStyle=orthogonalEdgeStyle;rounded=0;orthogonalLoop=1;jettySize=auto;html=1;exitX=0.5;exitY=1;exitDx=0;exitDy=0;entryX=0.5;entryY=1;entryDx=0;entryDy=0;" edge="1" parent="1" source="0a0jCNp5kRciebp-JQkH-5" target="0a0jCNp5kRciebp-JQkH-6">
          <mxGeometry relative="1" as="geometry" />
        </mxCell>
        <mxCell id="0a0jCNp5kRciebp-JQkH-5" value="&lt;b style=&quot;font-size: 14px;&quot;&gt;&lt;font face=&quot;Times New Roman&quot; style=&quot;font-size: 14px;&quot;&gt;Responsable&amp;nbsp;&lt;/font&gt;&lt;/b&gt;&lt;div style=&quot;font-size: 14px;&quot;&gt;&lt;b&gt;&lt;font face=&quot;Times New Roman&quot; style=&quot;font-size: 14px;&quot;&gt;de la&lt;/font&gt;&lt;/b&gt;&lt;/div&gt;&lt;div style=&quot;font-size: 14px;&quot;&gt;&lt;b style=&quot;&quot;&gt;&lt;font face=&quot;Times New Roman&quot; style=&quot;font-size: 14px;&quot;&gt;bibliothèque&amp;nbsp;&lt;/font&gt;&lt;/b&gt;&lt;/div&gt;" style="ellipse;whiteSpace=wrap;html=1;" vertex="1" parent="1">
          <mxGeometry x="640" y="200" width="150" height="80" as="geometry" />
        </mxCell>
        <mxCell id="0a0jCNp5kRciebp-JQkH-6" value="&lt;b&gt;&lt;font style=&quot;font-size: 17px;&quot; face=&quot;Times New Roman&quot;&gt;Service comptable&lt;/font&gt;&lt;/b&gt;" style="ellipse;whiteSpace=wrap;html=1;" vertex="1" parent="1">
          <mxGeometry x="510" y="270" width="180" height="80" as="geometry" />
        </mxCell>
        <mxCell id="0a0jCNp5kRciebp-JQkH-7" value="Les abonnés&amp;nbsp;" style="ellipse;whiteSpace=wrap;html=1;dashed=1;dashPattern=8 8;" vertex="1" parent="1">
          <mxGeometry x="20" y="130" width="180" height="80" as="geometry" />
        </mxCell>
        <mxCell id="0a0jCNp5kRciebp-JQkH-8" value="éditeurs&amp;nbsp;" style="ellipse;whiteSpace=wrap;html=1;dashed=1;dashPattern=8 8;" vertex="1" parent="1">
          <mxGeometry x="30" y="300" width="180" height="80" as="geometry" />
        </mxCell>
        <mxCell id="0a0jCNp5kRciebp-JQkH-10" style="edgeStyle=orthogonalEdgeStyle;rounded=0;orthogonalLoop=1;jettySize=auto;html=1;entryX=0.121;entryY=0.111;entryDx=0;entryDy=0;entryPerimeter=0;" edge="1" parent="1" source="0a0jCNp5kRciebp-JQkH-7" target="0a0jCNp5kRciebp-JQkH-3">
          <mxGeometry relative="1" as="geometry" />
        </mxCell>
        <mxCell id="0a0jCNp5kRciebp-JQkH-11" value="&lt;font color=&quot;#ff0011&quot;&gt;&lt;b&gt;1- Demande d&#39;achats&amp;nbsp;&lt;/b&gt;&lt;/font&gt;" style="text;html=1;align=center;verticalAlign=middle;resizable=0;points=[];autosize=1;strokeColor=none;fillColor=none;" vertex="1" parent="1">
          <mxGeometry x="260" y="120" width="150" height="30" as="geometry" />
        </mxCell>
        <mxCell id="0a0jCNp5kRciebp-JQkH-15" value="&lt;b&gt;Examine les demandes&lt;/b&gt;" style="text;html=1;align=center;verticalAlign=middle;resizable=0;points=[];autosize=1;fontColor=#FF0011;" vertex="1" parent="1">
          <mxGeometry x="640" y="130" width="160" height="30" as="geometry" />
        </mxCell>
        <mxCell id="0a0jCNp5kRciebp-JQkH-17" value="&lt;b&gt;&lt;font color=&quot;#ff0011&quot;&gt;2- Faire des commandes&amp;nbsp;&lt;/font&gt;&lt;/b&gt;" style="text;html=1;align=center;verticalAlign=middle;resizable=0;points=[];autosize=1;strokeColor=none;fillColor=none;" vertex="1" parent="1">
          <mxGeometry x="235" y="208" width="170" height="30" as="geometry" />
        </mxCell>
        <mxCell id="0a0jCNp5kRciebp-JQkH-18" style="edgeStyle=orthogonalEdgeStyle;rounded=0;orthogonalLoop=1;jettySize=auto;html=1;entryX=0.66;entryY=1.002;entryDx=0;entryDy=0;entryPerimeter=0;" edge="1" parent="1" source="0a0jCNp5kRciebp-JQkH-8" target="0a0jCNp5kRciebp-JQkH-5">
          <mxGeometry relative="1" as="geometry">
            <Array as="points">
              <mxPoint x="120" y="460" />
              <mxPoint x="739" y="460" />
            </Array>
          </mxGeometry>
        </mxCell>
        <mxCell id="0a0jCNp5kRciebp-JQkH-19" value="&lt;b&gt;&lt;font color=&quot;#ff0011&quot;&gt;3- Envoie les livres et les factures&lt;/font&gt;&lt;/b&gt;" style="text;html=1;align=center;verticalAlign=middle;resizable=0;points=[];autosize=1;strokeColor=none;fillColor=none;" vertex="1" parent="1">
          <mxGeometry x="300" y="470" width="220" height="30" as="geometry" />
        </mxCell>
        <mxCell id="0a0jCNp5kRciebp-JQkH-21" value="&lt;b&gt;&lt;font color=&quot;#ff0011&quot;&gt;4- ordre de paiement&lt;/font&gt;&lt;/b&gt;" style="text;html=1;align=center;verticalAlign=middle;resizable=0;points=[];autosize=1;strokeColor=none;fillColor=none;" vertex="1" parent="1">
          <mxGeometry x="470" y="360" width="140" height="30" as="geometry" />
        </mxCell>
        <mxCell id="0a0jCNp5kRciebp-JQkH-22" style="edgeStyle=orthogonalEdgeStyle;rounded=0;orthogonalLoop=1;jettySize=auto;html=1;entryX=0.466;entryY=-0.003;entryDx=0;entryDy=0;entryPerimeter=0;" edge="1" parent="1" source="0a0jCNp5kRciebp-JQkH-4" target="0a0jCNp5kRciebp-JQkH-7">
          <mxGeometry relative="1" as="geometry">
            <Array as="points">
              <mxPoint x="580" y="80" />
              <mxPoint x="104" y="80" />
            </Array>
          </mxGeometry>
        </mxCell>
        <mxCell id="0a0jCNp5kRciebp-JQkH-23" value="&lt;b&gt;&lt;font color=&quot;#ff0011&quot;&gt;6- Avis&amp;nbsp;&lt;/font&gt;&lt;/b&gt;" style="text;html=1;align=center;verticalAlign=middle;resizable=0;points=[];autosize=1;strokeColor=none;fillColor=none;" vertex="1" parent="1">
          <mxGeometry x="215" y="48" width="70" height="30" as="geometry" />
        </mxCell>
      </root>
    </mxGraphModel>
  </diagram>
</mxfile>
